<mxfile host="65bd71144e">
    <diagram id="qah2eCrdyv_LZVSQS9ue" name="ページ1">
        <mxGraphModel dx="3139" dy="923" grid="1" gridSize="10" guides="1" tooltips="1" connect="1" arrows="1" fold="1" page="1" pageScale="1" pageWidth="827" pageHeight="1169" math="0" shadow="0">
            <root>
                <mxCell id="0"/>
                <mxCell id="1" parent="0"/>
                <mxCell id="69" value="" style="rounded=0;whiteSpace=wrap;html=1;" vertex="1" parent="1">
                    <mxGeometry x="-800" y="40" width="290" height="360" as="geometry"/>
                </mxCell>
                <mxCell id="70" value="" style="shape=process;whiteSpace=wrap;html=1;backgroundOutline=1;" vertex="1" parent="1">
                    <mxGeometry x="-240" y="160" width="210" height="70" as="geometry"/>
                </mxCell>
                <mxCell id="71" value="&lt;h1&gt;Nginx&lt;/h1&gt;" style="text;html=1;strokeColor=none;fillColor=none;spacing=5;spacingTop=-20;whiteSpace=wrap;overflow=hidden;rounded=0;" vertex="1" parent="1">
                    <mxGeometry x="-180" y="180" width="80" height="50" as="geometry"/>
                </mxCell>
                <mxCell id="72" value="&lt;font style=&quot;font-size: 33px&quot;&gt;ArgoCD&lt;/font&gt;" style="rounded=1;whiteSpace=wrap;html=1;" vertex="1" parent="1">
                    <mxGeometry x="-780" y="120" width="250" height="110" as="geometry"/>
                </mxCell>
                <mxCell id="73" value="argocd.ctl.doche.io" style="text;html=1;strokeColor=none;fillColor=none;align=center;verticalAlign=middle;whiteSpace=wrap;rounded=0;fontSize=33;" vertex="1" parent="1">
                    <mxGeometry x="-792.5" y="60" width="275" height="30" as="geometry"/>
                </mxCell>
                <mxCell id="74" value="auth" style="rounded=1;whiteSpace=wrap;html=1;fontSize=33;" vertex="1" parent="1">
                    <mxGeometry x="-780" y="250" width="250" height="120" as="geometry"/>
                </mxCell>
                <mxCell id="76" value="" style="rounded=0;whiteSpace=wrap;html=1;fontSize=33;" vertex="1" parent="1">
                    <mxGeometry x="-800" y="600" width="290" height="390" as="geometry"/>
                </mxCell>
                <mxCell id="77" value="ctl.doche.io" style="text;html=1;strokeColor=none;fillColor=none;align=center;verticalAlign=middle;whiteSpace=wrap;rounded=0;fontSize=33;" vertex="1" parent="1">
                    <mxGeometry x="-791.5" y="620" width="275" height="30" as="geometry"/>
                </mxCell>
                <mxCell id="78" value="GitHub OAuth2" style="rounded=1;whiteSpace=wrap;html=1;fontSize=33;" vertex="1" parent="1">
                    <mxGeometry x="-780" y="660" width="250" height="300" as="geometry"/>
                </mxCell>
                <mxCell id="79" value="" style="shape=flexArrow;endArrow=classic;startArrow=classic;html=1;fontSize=33;exitX=1;exitY=0.5;exitDx=0;exitDy=0;" edge="1" parent="1" source="74">
                    <mxGeometry width="100" height="100" relative="1" as="geometry">
                        <mxPoint x="-340" y="300" as="sourcePoint"/>
                        <mxPoint x="-240" y="200" as="targetPoint"/>
                    </mxGeometry>
                </mxCell>
                <mxCell id="81" value="" style="shape=flexArrow;endArrow=classic;startArrow=classic;html=1;fontSize=33;" edge="1" parent="1">
                    <mxGeometry width="100" height="100" relative="1" as="geometry">
                        <mxPoint x="-530" y="180" as="sourcePoint"/>
                        <mxPoint x="-250" y="180" as="targetPoint"/>
                    </mxGeometry>
                </mxCell>
                <mxCell id="82" value="&lt;font style=&quot;font-size: 20px&quot;&gt;if auth res=200&lt;/font&gt;" style="text;html=1;strokeColor=none;fillColor=none;align=center;verticalAlign=middle;whiteSpace=wrap;rounded=0;fontSize=33;" vertex="1" parent="1">
                    <mxGeometry x="-530" y="140" width="280" height="30" as="geometry"/>
                </mxCell>
                <mxCell id="83" value="&lt;font style=&quot;font-size: 20px&quot;&gt;check auth&lt;/font&gt;" style="text;html=1;strokeColor=none;fillColor=none;align=center;verticalAlign=middle;whiteSpace=wrap;rounded=0;fontSize=33;rotation=0;" vertex="1" parent="1">
                    <mxGeometry x="-480" y="270" width="280" height="30" as="geometry"/>
                </mxCell>
                <mxCell id="86" value="" style="shape=flexArrow;endArrow=classic;html=1;fontSize=20;entryX=0.25;entryY=0;entryDx=0;entryDy=0;exitX=0.25;exitY=1;exitDx=0;exitDy=0;" edge="1" parent="1" source="74" target="78">
                    <mxGeometry width="50" height="50" relative="1" as="geometry">
                        <mxPoint x="-730" y="370" as="sourcePoint"/>
                        <mxPoint x="-730" y="640" as="targetPoint"/>
                    </mxGeometry>
                </mxCell>
                <mxCell id="88" value="redis" style="shape=cylinder3;whiteSpace=wrap;html=1;boundedLbl=1;backgroundOutline=1;size=15;fontSize=20;" vertex="1" parent="1">
                    <mxGeometry x="-1290" y="120" width="210" height="280" as="geometry"/>
                </mxCell>
                <mxCell id="89" value="" style="shape=flexArrow;endArrow=classic;html=1;fontSize=33;exitX=0;exitY=0.25;exitDx=0;exitDy=0;" edge="1" parent="1" source="74">
                    <mxGeometry width="50" height="50" relative="1" as="geometry">
                        <mxPoint x="-760" y="320" as="sourcePoint"/>
                        <mxPoint x="-1090" y="230" as="targetPoint"/>
                    </mxGeometry>
                </mxCell>
                <mxCell id="90" value="" style="shape=flexArrow;endArrow=classic;html=1;fontSize=33;entryX=0;entryY=0.75;entryDx=0;entryDy=0;exitX=0.997;exitY=0.608;exitDx=0;exitDy=0;exitPerimeter=0;" edge="1" parent="1" source="88" target="74">
                    <mxGeometry width="50" height="50" relative="1" as="geometry">
                        <mxPoint x="-1090" y="270" as="sourcePoint"/>
                        <mxPoint x="-800" y="360" as="targetPoint"/>
                    </mxGeometry>
                </mxCell>
                <mxCell id="91" value="if not logined, redirect" style="text;html=1;strokeColor=none;fillColor=none;align=center;verticalAlign=middle;whiteSpace=wrap;rounded=0;fontSize=33;" vertex="1" parent="1">
                    <mxGeometry x="-960" y="480" width="240" height="30" as="geometry"/>
                </mxCell>
                <mxCell id="93" value="" style="shape=flexArrow;endArrow=classic;html=1;fontSize=33;exitX=0.75;exitY=0;exitDx=0;exitDy=0;entryX=0.75;entryY=1;entryDx=0;entryDy=0;" edge="1" parent="1" source="78" target="74">
                    <mxGeometry width="50" height="50" relative="1" as="geometry">
                        <mxPoint x="-580" y="370" as="sourcePoint"/>
                        <mxPoint x="-530" y="320" as="targetPoint"/>
                    </mxGeometry>
                </mxCell>
            </root>
        </mxGraphModel>
    </diagram>
</mxfile>